<svg xmlns="http://www.w3.org/2000/svg" viewBox="0 0 20.41 20.43"><defs><style>.cls-1{fill:#33fc58;}</style></defs><title>Ресурс 1</title><g id="Слой_2" data-name="Слой 2"><g id="Layer_1" data-name="Layer 1"><path class="cls-1" d="M.77,14.32a3,3,0,0,1-.53-.76A2.46,2.46,0,0,1,0,12.64a2.24,2.24,0,0,1,.18-1,3.32,3.32,0,0,1,.73-1l9.7-9.7a3.32,3.32,0,0,1,1-.73,2.39,2.39,0,0,1,1-.18,2.46,2.46,0,0,1,.92.24,2.79,2.79,0,0,1,.76.53l.34.35a2.49,2.49,0,0,1,.54.76,2.45,2.45,0,0,1,.23.92,2.26,2.26,0,0,1-.18,1,3.23,3.23,0,0,1-.72,1l-9.7,9.7a3.23,3.23,0,0,1-1,.72,2.26,2.26,0,0,1-1,.18,2.45,2.45,0,0,1-.92-.23,2.62,2.62,0,0,1-.76-.54ZM13.2,2.16c-.29-.29-.74-.14-1.34.46L2.62,11.86a2.16,2.16,0,0,0-.58.81.51.51,0,0,0,.12.53l.08.07a.52.52,0,0,0,.52.13,2.16,2.16,0,0,0,.81-.58l9.25-9.25c.59-.59.74-1,.45-1.33Z"/><path class="cls-1" d="M16.24,13.28a2.39,2.39,0,0,1-1.1.72,1.25,1.25,0,0,1-.86-.08,1.13,1.13,0,0,1,.1.84,2.37,2.37,0,0,1-.72,1.09L10,19.57a3,3,0,0,1-1,.69,2.27,2.27,0,0,1-1,.16,2.36,2.36,0,0,1-.91-.24,3,3,0,0,1-.77-.56L4.18,17.5,17.5,4.18,19.62,6.3a2.83,2.83,0,0,1,.55.78,2.34,2.34,0,0,1,0,1.92,3.09,3.09,0,0,1-.73,1Zm-4.18,1.2c.56-.55.72-1,.46-1.22L12,12.69l-5,5,.51.51c.3.29.72.16,1.26-.38Zm1.59-2.3q.36.36,1.2-.48l2.93-2.93q.9-.9.48-1.32l-.53-.53-4.67,4.67Z"/></g></g></svg>