<svg xmlns="http://www.w3.org/2000/svg" viewBox="0 0 6.93 11.78"><defs><style>.cls-1{fill:#cbdada;}</style></defs><title>Ресурс 4</title><g id="Слой_2" data-name="Слой 2"><g id="Layer_1" data-name="Layer 1"><path class="cls-1" d="M4.13,0H6a1.1,1.1,0,0,1,.43.08.93.93,0,0,1,.3.2.73.73,0,0,1,.17.28,1.06,1.06,0,0,1,0,.31V1a1.19,1.19,0,0,1,0,.32.73.73,0,0,1-.17.28.79.79,0,0,1-.3.2A.94.94,0,0,1,6,1.85H4.9a1.87,1.87,0,0,1-.59-.09,3.16,3.16,0,0,1-.55-.22c-.19-.08-.38-.18-.58-.28A5.19,5.19,0,0,0,2.51,1,5.68,5.68,0,0,0,1.67.75,5.59,5.59,0,0,0,.61.66V1.91H.06V0H.61A6.47,6.47,0,0,1,1.76.09a5.79,5.79,0,0,1,.89.22,4.8,4.8,0,0,1,.68.28L3.9.88a3.49,3.49,0,0,0,.53.22A1.81,1.81,0,0,0,5,1.19h.87a.71.71,0,0,0,.39-.08A.22.22,0,0,0,6.38.93V.87A.23.23,0,0,0,6.26.68.68.68,0,0,0,5.89.6H4.13Z"/><path class="cls-1" d="M3.8,4.12c0,.22.19.33.56.33H5.88a.71.71,0,0,0,.39-.08.24.24,0,0,0,.11-.19V4.12a.21.21,0,0,0-.12-.18.68.68,0,0,0-.37-.08H4.11V3.2H6a.94.94,0,0,1,.43.08.79.79,0,0,1,.3.2.77.77,0,0,1,.17.27,1.2,1.2,0,0,1,0,.33v.15a1.25,1.25,0,0,1,0,.32.73.73,0,0,1-.17.28.93.93,0,0,1-.3.2A1.1,1.1,0,0,1,6,5.11H4.44a.83.83,0,0,1-.61-.19.81.81,0,0,1-.26-.43.81.81,0,0,1-.24.43.75.75,0,0,1-.58.19H1A1.15,1.15,0,0,1,.51,5a.79.79,0,0,1-.29-.2.73.73,0,0,1-.17-.28,1.25,1.25,0,0,1,0-.32V4.08a1.2,1.2,0,0,1,.05-.33.77.77,0,0,1,.17-.27.69.69,0,0,1,.29-.2A1,1,0,0,1,1,3.2H2.81v.66H1a.69.69,0,0,0-.38.08.2.2,0,0,0-.11.18v.06a.22.22,0,0,0,.11.19A.69.69,0,0,0,1,4.45H2.77a.8.8,0,0,0,.41-.09.25.25,0,0,0,.15-.24V3.9H3.8Z"/><path class="cls-1" d="M1.62,8.56H1.06V8.22h-1V7.65h1V6.34h.56L6.87,7.45v.77H1.62ZM5,7.65v0L1.63,7h0v.68Z"/><path class="cls-1" d="M6.93,10.9a1.25,1.25,0,0,1,0,.32.81.81,0,0,1-.17.28.93.93,0,0,1-.3.2,1.1,1.1,0,0,1-.43.08H1a1.15,1.15,0,0,1-.44-.08.93.93,0,0,1-.3-.2,1,1,0,0,1-.17-.28,1.25,1.25,0,0,1,0-.32v-.12a1.19,1.19,0,0,1,.05-.32,1,1,0,0,1,.17-.28,1.12,1.12,0,0,1,.3-.2A1.16,1.16,0,0,1,1,9.91H2.81v.62H1a.68.68,0,0,0-.37.08.21.21,0,0,0-.11.19v0a.24.24,0,0,0,.1.19.71.71,0,0,0,.39.08H3.48a.8.8,0,0,1-.26-.26.63.63,0,0,1-.08-.28v-.07a.59.59,0,0,1,.22-.44,1.12,1.12,0,0,1,.73-.2H6a.94.94,0,0,1,.43.08.75.75,0,0,1,.47.47,1.19,1.19,0,0,1,0,.32Zm-1,.22A.69.69,0,0,0,6.26,11a.24.24,0,0,0,.12-.19v-.06a.21.21,0,0,0-.12-.18.69.69,0,0,0-.38-.08H4.19a.71.71,0,0,0-.39.08.21.21,0,0,0-.1.18v.06a.23.23,0,0,0,.11.19.68.68,0,0,0,.37.08Z"/></g></g></svg>