<svg xmlns="http://www.w3.org/2000/svg" viewBox="0 0 6.93 18.94"><defs><style>.cls-1{fill:#cbdada;}</style></defs><title>Ресурс 3</title><g id="Слой_2" data-name="Слой 2"><g id="Layer_1" data-name="Layer 1"><path class="cls-1" d="M.06.6H5.88c0-.07,0-.17-.07-.29a1.88,1.88,0,0,1,0-.31h.52a.67.67,0,0,0,0,.24.71.71,0,0,0,.13.22.61.61,0,0,0,.19.17.51.51,0,0,0,.22.09v.55H.06Z"/><path class="cls-1" d="M0,3.53a1.13,1.13,0,0,1,.05-.32.88.88,0,0,1,.17-.28.93.93,0,0,1,.3-.2A1.15,1.15,0,0,1,1,2.65H2.87v.67H1.05a.71.71,0,0,0-.38.07.23.23,0,0,0-.11.19v.06a.2.2,0,0,0,.11.18.69.69,0,0,0,.38.08H3.32a.76.76,0,0,0,.39-.08.21.21,0,0,0,.1-.18V3.58a.26.26,0,0,0-.11-.19.69.69,0,0,0-.37-.07H3.26V3.18h0V2.65h3.6V4.54l-.55,0V3.32H4a.58.58,0,0,1,.35.53v.07a.6.6,0,0,1-.23.44,1,1,0,0,1-.73.2H1a1.16,1.16,0,0,1-.44-.07,1.12,1.12,0,0,1-.3-.2A1.05,1.05,0,0,1,.05,4a1.12,1.12,0,0,1,0-.31Z"/><path class="cls-1" d="M.06,6.4H5.88l-.07-.3a1.88,1.88,0,0,1,0-.31h.52a.67.67,0,0,0,0,.24.83.83,0,0,0,.32.39.51.51,0,0,0,.22.09v.55H.06Z"/><path class="cls-1" d="M4.13,8.44H6a1.1,1.1,0,0,1,.43.08.93.93,0,0,1,.3.2A.73.73,0,0,1,6.88,9a1.12,1.12,0,0,1,0,.31v.11a1.25,1.25,0,0,1,0,.32.81.81,0,0,1-.17.28.93.93,0,0,1-.3.2A1.1,1.1,0,0,1,6,10.3H4.9a1.87,1.87,0,0,1-.59-.09A4.2,4.2,0,0,1,3.76,10L3.18,9.7a7.08,7.08,0,0,0-.67-.29,7.27,7.27,0,0,0-.84-.22A6.64,6.64,0,0,0,.61,9.11v1.24H.06V8.44H.61a6.47,6.47,0,0,1,1.15.09,5.79,5.79,0,0,1,.89.22A4.79,4.79,0,0,1,3.33,9l.57.29a3.44,3.44,0,0,0,.53.21A1.81,1.81,0,0,0,5,9.63h.87a.63.63,0,0,0,.39-.08.22.22,0,0,0,.11-.18V9.31a.21.21,0,0,0-.12-.18.6.6,0,0,0-.37-.08H4.13Z"/><path class="cls-1" d="M.06,12.42v-.66H1v.66Z"/><path class="cls-1" d="M3.8,14.76c0,.22.19.32.56.32H5.88A.63.63,0,0,0,6.27,15a.22.22,0,0,0,.11-.18v-.06a.21.21,0,0,0-.12-.18.6.6,0,0,0-.37-.08H4.11v-.67H6a1.1,1.1,0,0,1,.43.08.93.93,0,0,1,.3.2.81.81,0,0,1,.17.28,1.13,1.13,0,0,1,0,.32v.16a1.25,1.25,0,0,1,0,.32.81.81,0,0,1-.17.28.93.93,0,0,1-.3.2,1.1,1.1,0,0,1-.43.08H4.44a.87.87,0,0,1-.61-.19.8.8,0,0,1-.26-.44.84.84,0,0,1-.24.44.79.79,0,0,1-.58.19H1a1.15,1.15,0,0,1-.44-.08.79.79,0,0,1-.29-.2.81.81,0,0,1-.17-.28,1.25,1.25,0,0,1,0-.32v-.16a1.13,1.13,0,0,1,.05-.32.81.81,0,0,1,.17-.28.79.79,0,0,1,.29-.2A1.15,1.15,0,0,1,1,13.83H2.81v.67H1a.61.61,0,0,0-.38.08.2.2,0,0,0-.11.18v.06A.2.2,0,0,0,.66,15a.61.61,0,0,0,.38.08H2.77A.93.93,0,0,0,3.18,15a.26.26,0,0,0,.15-.24v-.22H3.8Z"/><path class="cls-1" d="M4.13,17H6a1.1,1.1,0,0,1,.43.08.93.93,0,0,1,.3.2.73.73,0,0,1,.17.28,1.12,1.12,0,0,1,0,.31V18a1.25,1.25,0,0,1,0,.32.81.81,0,0,1-.17.28,1.12,1.12,0,0,1-.3.2,1.1,1.1,0,0,1-.43.08H4.9a1.87,1.87,0,0,1-.59-.09,4.2,4.2,0,0,1-.55-.22l-.58-.29A7.08,7.08,0,0,0,2.51,18a7.27,7.27,0,0,0-.84-.22A6.64,6.64,0,0,0,.61,17.7v1.24H.06V17H.61a6.47,6.47,0,0,1,1.15.09,5.79,5.79,0,0,1,.89.22,4.79,4.79,0,0,1,.68.29l.57.29a3.44,3.44,0,0,0,.53.21,1.81,1.81,0,0,0,.58.09h.87a.63.63,0,0,0,.39-.08A.22.22,0,0,0,6.38,18V17.9a.21.21,0,0,0-.12-.18.6.6,0,0,0-.37-.08H4.13Z"/></g></g></svg>