<svg xmlns="http://www.w3.org/2000/svg" viewBox="0 0 21.59 20.33"><defs><style>.cls-1{fill:#33fc58;}</style></defs><title>Ресурс 2</title><g id="Слой_2" data-name="Слой 2"><g id="Layer_1" data-name="Layer 1"><path class="cls-1" d="M14.32,19.56a2.59,2.59,0,0,1-.76.53,2.46,2.46,0,0,1-.92.24,2.24,2.24,0,0,1-1-.18,3.12,3.12,0,0,1-1-.72L.91,9.73a3.39,3.39,0,0,1-.73-1A2.44,2.44,0,0,1,0,7.7a2.51,2.51,0,0,1,.24-.93A3,3,0,0,1,.77,6l.35-.34a2.79,2.79,0,0,1,.76-.53A2.46,2.46,0,0,1,2.8,4.9a2.26,2.26,0,0,1,1,.18,3.12,3.12,0,0,1,1,.73l9.7,9.7a3.2,3.2,0,0,1,.72,1,2.36,2.36,0,0,1-.05,1.93,2.76,2.76,0,0,1-.54.76ZM2.16,7.14c-.29.29-.13.73.46,1.33l9.24,9.24a2,2,0,0,0,.81.58.51.51,0,0,0,.53-.12l.07-.08a.51.51,0,0,0,.13-.52,2.21,2.21,0,0,0-.59-.81L3.57,7.52c-.59-.6-1-.75-1.33-.46Z"/><path class="cls-1" d="M16.33,10.27l-1,1.05,3.24,3.81L17.25,16.4,5.11,1.9,7,0,21.59,12.06l-1.43,1.43Zm-2-.15.85-.86-5-4.17-.06,0Z"/></g></g></svg>