<svg xmlns="http://www.w3.org/2000/svg" viewBox="0 0 14.58 19"><defs><style>.cls-1{fill:#cbdada;}</style></defs><title>Ресурс 10</title><g id="Слой_2" data-name="Слой 2"><g id="Layer_3" data-name="Layer 3"><path class="cls-1" d="M14.2,6v.42H10.69V6C10.69,3.86,9.37,3,7.21,3s-3.16.83-3.16,2.19,1,2,3.32,2.48L8,7.83c4,.83,6.59,2.19,6.59,5.53S11.8,19,7.42,19,0,16.65,0,12.68v-.26H3.51v.26C3.51,14.88,5,16,7.42,16s3.65-1,3.65-2.5-1.27-2-3.7-2.56l-.62-.13C2.78,9.94.54,8.66.54,5.32S3.16,0,7.21,0,14.2,2,14.2,6Z"/></g></g></svg>