<svg xmlns="http://www.w3.org/2000/svg" viewBox="0 0 35.37 22.01"><defs><style>.cls-1{fill:#33fc58;}</style></defs><title>Ресурс 13</title><g id="Слой_2" data-name="Слой 2"><g id="Layer_1" data-name="Layer 1"><path id="Behance" class="cls-1" d="M31.94,3.11H23.08V.91h8.86v2.2Zm-14.76,9A5.84,5.84,0,0,1,18,15.36a6.5,6.5,0,0,1-1,3.52A6.13,6.13,0,0,1,15.5,20.6,6,6,0,0,1,13,21.71a15.2,15.2,0,0,1-3.11.3H0V0H10.63q4,.06,5.7,2.34a5.63,5.63,0,0,1,1,3.36,4.87,4.87,0,0,1-1,3.24,5.26,5.26,0,0,1-1.68,1.26A4.89,4.89,0,0,1,17.18,12.14ZM5.08,8.68H9.73a4.46,4.46,0,0,0,2.33-.55A2.08,2.08,0,0,0,13,6.2a2,2,0,0,0-1.18-2,8.25,8.25,0,0,0-2.6-.35H5.08Zm8.32,6.37A2.38,2.38,0,0,0,12,12.69a5.56,5.56,0,0,0-2.2-.37H5.08v5.86H9.73A5.15,5.15,0,0,0,12,17.8,2.76,2.76,0,0,0,13.4,15.05Zm21.83-3.58a21.77,21.77,0,0,1,.13,3.13H23.89a3.79,3.79,0,0,0,1.64,3.33,4.25,4.25,0,0,0,2.28.59,3.23,3.23,0,0,0,3.13-1.81h4.21a5.11,5.11,0,0,1-1.53,2.85,7.67,7.67,0,0,1-5.93,2.3,8.59,8.59,0,0,1-5.55-1.94c-1.6-1.29-2.41-3.4-2.41-6.31A8.58,8.58,0,0,1,21.9,7.32a7.61,7.61,0,0,1,5.64-2.18,9,9,0,0,1,3.71.73A6.38,6.38,0,0,1,34,8.21,7.81,7.81,0,0,1,35.23,11.47Zm-4.14.41A3.48,3.48,0,0,0,30,9.39a3.6,3.6,0,0,0-2.45-.85,3.26,3.26,0,0,0-2.46.9A4.29,4.29,0,0,0,24,11.88Z"/></g></g></svg>