<svg xmlns="http://www.w3.org/2000/svg" viewBox="0 0 28.18 24.37"><defs><style>.cls-1{fill:#33fc58;}</style></defs><title>Ресурс 14</title><g id="Слой_2" data-name="Слой 2"><g id="Layer_1" data-name="Layer 1"><path class="cls-1" d="M28.17,5.64Q28,9.75,22.42,16.91q-5.75,7.45-9.72,7.46-2.47,0-4.17-4.54L6.25,11.49c-.84-3-1.74-4.55-2.71-4.55A8.65,8.65,0,0,0,1.33,8.26L0,6.56Q2.09,4.72,4.11,2.89C6,1.29,7.36.44,8.29.36Q11.58,0,12.34,4.85q.83,5.21,1.14,6.46c.63,2.88,1.33,4.31,2.09,4.31.59,0,1.47-.93,2.65-2.8a10.94,10.94,0,0,0,1.9-4.25c.17-1.61-.46-2.41-1.9-2.41a5.19,5.19,0,0,0-2.08.46Q18.21-.19,24.07,0,28.42.13,28.17,5.64Z"/></g></g></svg>