<svg xmlns="http://www.w3.org/2000/svg" viewBox="0 0 5.45 9.69"><defs><style>.cls-1{fill:#cbdada;}</style></defs><title>Ресурс 18</title><g id="Слой_2" data-name="Слой 2"><g id="Layer_3" data-name="Layer 3"><path class="cls-1" d="M5.41,1.13C5.41,2,5,2.28,4.19,2.28H3.72c-.64,0-1-.24-1.12-.78a1,1,0,0,1-1.11.78H.65A1.27,1.27,0,0,0,0,2.41V2a1.31,1.31,0,0,1,.65-.11H1.5c.72,0,.92-.39.92-1V.35H0V0H5.41ZM2.74.93c0,.63.18,1,.91,1h.51c.58,0,.92-.23.92-.81V.35H2.74Z"/><path class="cls-1" d="M0,4.68H5.08V3.58h.33V6.13H5.08V5H0Z"/><path class="cls-1" d="M4.08,9.69c-1.56,0-2.1-1.95-3.69-2H.32V9.65H0V7.36H.26c1.91,0,2.32,2,3.8,2,.63,0,1.07-.21,1.07-.83s-.46-.81-1-.81H3.72V7.36h.34c.78,0,1.39.33,1.39,1.17S4.87,9.69,4.08,9.69Z"/></g></g></svg>