<svg xmlns="http://www.w3.org/2000/svg" viewBox="0 0 5.67 61.44"><defs><style>.cls-1{fill:#cbdada;}</style></defs><title>Ресурс 13</title><g id="Слой_2" data-name="Слой 2"><g id="Layer_3" data-name="Layer 3"><path class="cls-1" d="M3.5.39a.86.86,0,0,1,.39.82c0,.7-.53,1-1.24,1H1.79c-.73,0-1.28-.32-1.28-1.1S1.06,0,1.79,0h.27V.32H1.77c-.54,0-.95.22-.95.77s.41.77,1,.77h.86c.54,0,1-.22,1-.77A.71.71,0,0,0,3,.36H2.92V.05l2.7.13v1.9H5.31V.48Z"/><path class="cls-1" d="M3.5,3.85a.86.86,0,0,1,.39.82c0,.7-.53,1-1.24,1H1.79c-.73,0-1.28-.32-1.28-1.1s.55-1.09,1.28-1.09h.27v.32H1.77c-.54,0-.95.21-.95.76s.41.78,1,.78h.86c.54,0,1-.22,1-.78A.71.71,0,0,0,3,3.82H2.92V3.51l2.7.13v1.9H5.31V3.94Z"/><path class="cls-1" d="M1.19,7.26H.55V6.93h.64Z"/><path class="cls-1" d="M5.31,10.4V8.54h.31v2.2h-.3L.55,9.31V9Z"/><path class="cls-1" d="M3.5,12.4a.86.86,0,0,1,.39.81c0,.7-.53,1-1.24,1H1.79c-.73,0-1.28-.33-1.28-1.1S1.06,12,1.79,12h.27v.32H1.77c-.54,0-.95.22-.95.77s.41.77,1,.77h.86c.54,0,1-.21,1-.77A.7.7,0,0,0,3,12.37H2.92v-.31l2.7.13v1.9H5.31v-1.6Z"/><path class="cls-1" d="M3.5,15.85a.88.88,0,0,1,.39.82c0,.7-.53,1-1.24,1H1.79c-.73,0-1.28-.33-1.28-1.1s.55-1.1,1.28-1.1h.27v.32H1.77c-.54,0-.95.22-.95.77s.41.77,1,.77h.86c.54,0,1-.21,1-.77A.7.7,0,0,0,3,15.83H2.92v-.32l2.7.13v1.91H5.31V16Z"/><path class="cls-1" d="M4.43,21.2H4.27a1,1,0,0,1-1.07-.67,1,1,0,0,1-1.08.67H1.76A1.1,1.1,0,0,1,.51,20.05c0-.78.5-1.15,1.25-1.15h.36a1,1,0,0,1,1.08.68,1,1,0,0,1,1.07-.68h.16a1.15,1.15,0,1,1,0,2.3Zm-2.28-2H1.77c-.59,0-1,.27-1,.82s.37.81,1,.82h.38c.59,0,.89-.27.89-.82S2.74,19.23,2.15,19.23Zm2.27,0H4.21a.76.76,0,0,0-.87.82c0,.54.3.82.87.82h.21c.59,0,.93-.28.93-.82S5,19.23,4.42,19.23Z"/><path class="cls-1" d="M5.14,23.47a.53.53,0,0,1-.53-.53.54.54,0,0,1,.53-.54.53.53,0,0,1,.53.54A.52.52,0,0,1,5.14,23.47Zm0-.89a.35.35,0,0,0-.35.36.36.36,0,1,0,.71,0A.35.35,0,0,0,5.14,22.58Z"/><path class="cls-1" d="M.55,26.86v-.3H5.61V27L1.34,28.51H5.61v.3H.55v-.37l4.51-1.58Z"/><path class="cls-1" d="M.55,30.29v-.11h.64v.32H.58L0,30.29v-.14Z"/><path class="cls-1" d="M4.38,35.82H4.25a1,1,0,0,1-1-.68,1,1,0,0,1-1,.68H1.79c-.74,0-1.28-.32-1.28-1.1s.54-1.09,1.28-1.09h.29V34H1.77c-.55,0-1,.21-1,.77s.41.76,1,.76h.39c.53,0,.84-.26.86-.75v-.34h.3v.36a.77.77,0,0,0,.85.73h.18c.58,0,1-.21,1-.76S5,34,4.4,34H4.2v-.32h.18c.73,0,1.28.32,1.28,1.09S5.11,35.82,4.38,35.82Z"/><path class="cls-1" d="M5.31,38.94V37.08h.31v2.2h-.3L.55,37.86v-.34Z"/><path class="cls-1" d="M1.19,40.89H.55v-.33h.64Z"/><path class="cls-1" d="M4.4,44.38H4.34v-.31h.08c.54,0,.93-.21.93-.77s-.4-.8-1-.8H3.18a1,1,0,0,1,.47.91c0,.71-.53,1-1.24,1H1.79c-.74,0-1.28-.34-1.28-1.12s.54-1.12,1.28-1.12H4.36c.76,0,1.3.33,1.3,1.12S5.14,44.38,4.4,44.38Zm-2-1.88H1.77c-.55,0-.95.23-.95.79s.4.78,1,.78h.62c.54,0,.94-.22.94-.78S2.93,42.5,2.39,42.5Z"/><path class="cls-1" d="M5.05,46.64a1.08,1.08,0,0,1-.43-.79h.29a1,1,0,0,0,.71.87V47H.55v-.34Z"/><path class="cls-1" d="M5.31,50.27V48.42h.31v2.19h-.3L.55,49.19v-.34Z"/><path class="cls-1" d="M4.38,54.07H4.25a1,1,0,0,1-1-.68,1,1,0,0,1-1,.68H1.79c-.74,0-1.28-.32-1.28-1.1s.54-1.09,1.28-1.09h.29v.32H1.77c-.55,0-1,.21-1,.77s.41.76,1,.76h.39c.53,0,.84-.26.86-.75v-.34h.3V53a.77.77,0,0,0,.85.73h.18c.58,0,1-.21,1-.76S5,52.2,4.4,52.2H4.2v-.32h.18c.73,0,1.28.32,1.28,1.09S5.11,54.07,4.38,54.07Z"/><path class="cls-1" d="M5.14,56.36a.54.54,0,1,1,.53-.53A.53.53,0,0,1,5.14,56.36Zm0-.9a.35.35,0,0,0-.35.37.36.36,0,1,0,.35-.37Z"/><path class="cls-1" d="M3.27,61.16H3V59.78H.85v1.66H.55v-2H5.61v2h-.3V59.78h-2Z"/></g></g></svg>