<svg xmlns="http://www.w3.org/2000/svg" viewBox="0 0 5.45 14.36"><defs><style>.cls-1{fill:#cbdada;}</style></defs><title>Ресурс 17</title><g id="Слой_2" data-name="Слой 2"><g id="Layer_3" data-name="Layer 3"><path class="cls-1" d="M1.2.59,0,.32V0L5.41,1.18V1.7L0,2.9V2.55l1.2-.27Zm.31.06V2.22L5,1.43Z"/><path class="cls-1" d="M1.2,4.73,0,4.46V4.13L5.41,5.31v.52L0,7V6.68l1.2-.27Zm.31,0V6.35L5,5.56Z"/><path class="cls-1" d="M5.08,10.3v-2h.33v2.34H5.09L0,9.15V8.78Z"/><path class="cls-1" d="M4.08,14.36c-1.56,0-2.1-1.95-3.69-2H.32v1.93H0V12H.26c1.91,0,2.32,2,3.8,2,.63,0,1.07-.2,1.07-.82s-.46-.81-1-.81H3.72V12h.34c.78,0,1.39.33,1.39,1.16S4.87,14.36,4.08,14.36Z"/></g></g></svg>