<svg xmlns="http://www.w3.org/2000/svg" viewBox="0 0 14.77 100.09"><defs><style>.cls-1{fill:#cbdada;}</style></defs><title>Ресурс 14</title><g id="Слой_2" data-name="Слой 2"><g id="Layer_3" data-name="Layer 3"><path class="cls-1" d="M13.4,2.33H13V2h.47c.58,0,1-.22,1-.82s-.44-.81-1-.81H10.61c-.58,0-1,.22-1,.81S10,2,10.61,2h.64v.34h-.62c-.78,0-1.36-.34-1.36-1.16S9.85,0,10.63,0H13.4c.78,0,1.37.34,1.37,1.17S14.18,2.33,13.4,2.33Z"/><path class="cls-1" d="M13.4,3.66c.79,0,1.37.36,1.37,1.18S14.19,6,13.4,6H10.63c-.79,0-1.36-.36-1.36-1.19s.57-1.18,1.36-1.18ZM10.61,4c-.59,0-1,.23-1,.83s.43.84,1,.84h2.81c.59,0,1-.24,1-.84S14,4,13.42,4Z"/><path class="cls-1" d="M9.31,7.71V7.39h5.41v.46L10.15,9.47h4.57v.32H9.31V9.4l4.82-1.69Z"/><path class="cls-1" d="M9.31,12.11H14.4V11h.32v2.56H14.4v-1.1H9.31Z"/><path class="cls-1" d="M14.72,15.14H9.31v-.35h5.41Z"/><path class="cls-1" d="M9.31,16.86v-.33h5.41V17l-4.57,1.62h4.57v.33H9.31v-.39l4.82-1.69Z"/><path class="cls-1" d="M10.62,20.66c-.58,0-1,.21-1,.81s.45.81,1,.81h4.1v.33H10.63c-.77,0-1.36-.32-1.36-1.15s.59-1.16,1.36-1.16h4.09v.36Z"/><path class="cls-1" d="M10.51,24.51l-1.2-.27v-.33l5.42,1.18v.52l-5.42,1.2v-.35l1.2-.27Zm.31,0v1.57l3.5-.79Z"/><path class="cls-1" d="M9.31,28.12h5.41v.36H9.64v1.69H9.31Z"/><path class="cls-1" d="M14.72,33.8H9.31v-.36h5.41Z"/><path class="cls-1" d="M9.32,37v-.36L14.1,35.5H9.31v-.32h5.41v.51L9.94,36.83,14.72,38v.51H9.31v-.34h4.81Z"/><path class="cls-1" d="M14.72,41c0,.83-.53,1.16-1.31,1.16h-.59c-.86,0-1.28-.4-1.28-1.25V40.2H9.31v-.35h5.41Zm-2.86-.09c0,.62.28.89.94.89h.63c.59,0,1-.2,1-.8V40.2H11.86Z"/><path class="cls-1" d="M14.72,44.57c0,.82-.46,1.16-1.22,1.16H13c-.64,0-1-.25-1.12-.78a1,1,0,0,1-1.11.78H10a1.19,1.19,0,0,0-.65.13v-.37a1.2,1.2,0,0,1,.65-.12h.85c.72,0,.92-.39.92-1V43.8H9.31v-.36h5.41Zm-2.67-.2c0,.63.18,1,.91,1h.51c.58,0,.93-.22.93-.81V43.8H12.05Z"/><path class="cls-1" d="M13.4,47.17c.79,0,1.37.36,1.37,1.18s-.58,1.19-1.37,1.19H10.63c-.79,0-1.36-.36-1.36-1.19s.57-1.18,1.36-1.18Zm-2.79.35c-.59,0-1,.23-1,.83s.43.84,1,.84h2.81c.59,0,1-.24,1-.84s-.43-.83-1-.83Z"/><path class="cls-1" d="M14.72,51.18l-5,1.09,5,1.1v.33L9.31,52.53V52l5.41-1.19Z"/><path class="cls-1" d="M12.22,56.84h-.33V55.36H9.64v1.78H9.31V55h5.41v2.13H14.4V55.36H12.22Z"/><path class="cls-1" d="M9.32,60.3v-.36L14.1,58.8H9.31v-.31h5.41V59L9.94,60.13l4.78,1.13v.5H9.31v-.33h4.81Z"/><path class="cls-1" d="M12.22,65h-.33V63.51H9.64v1.77H9.31V63.15h5.41v2.13H14.4V63.51H12.22Z"/><path class="cls-1" d="M9.31,67v-.32h5.41v.46l-4.57,1.62h4.57V69H9.31v-.4L14.13,67Z"/><path class="cls-1" d="M9.31,71.35H14.4v-1.1h.32V72.8H14.4V71.7H9.31Z"/><path class="cls-1" d="M14.72,77.12c0,.83-.53,1.15-1.31,1.15h-.59c-.86,0-1.28-.39-1.28-1.25v-.67H9.31V76h5.41ZM11.86,77c0,.63.28.9.94.9h.63c.59,0,1-.2,1-.8v-.77H11.86Z"/><path class="cls-1" d="M14.72,80.72c0,.82-.46,1.15-1.22,1.15H13c-.64,0-1-.24-1.12-.77a1,1,0,0,1-1.11.77H10a1.2,1.2,0,0,0-.65.14v-.37a1.2,1.2,0,0,1,.65-.12h.85c.72,0,.92-.39.92-1V80H9.31v-.36h5.41Zm-2.67-.2c0,.63.18,1,.91,1h.51c.58,0,.93-.22.93-.81V80H12.05Z"/><path class="cls-1" d="M13.4,83.32c.79,0,1.37.36,1.37,1.18s-.58,1.19-1.37,1.19H10.63c-.79,0-1.36-.36-1.36-1.19s.57-1.18,1.36-1.18Zm-2.79.35c-.59,0-1,.23-1,.83s.43.84,1,.84h2.81c.59,0,1-.24,1-.84s-.43-.83-1-.83Z"/><path class="cls-1" d="M13.4,89.35H13V89h.47c.58,0,1-.22,1-.81s-.44-.82-1-.82H10.61c-.58,0-1,.22-1,.82s.43.81,1,.81h.64v.34h-.62c-.78,0-1.36-.34-1.36-1.16S9.85,87,10.63,87H13.4c.78,0,1.37.34,1.37,1.17S14.18,89.35,13.4,89.35Z"/><path class="cls-1" d="M12.22,92.53h-.33V91.06H9.64v1.77H9.31V90.7h5.41v2.13H14.4V91.06H12.22Z"/><path class="cls-1" d="M13.41,96.46H13.3v-.34h.14c.57,0,1-.22,1-.81s-.42-.8-1-.8c-1.31,0-1.33,1.95-2.82,1.95-.78,0-1.35-.34-1.35-1.16s.57-1.17,1.35-1.17h.28v.34h-.31c-.57,0-1,.23-1,.82s.42.82,1,.82c1.3,0,1.33-2,2.83-2,.81,0,1.34.35,1.35,1.15S14.19,96.46,13.41,96.46Z"/><path class="cls-1" d="M13.41,100.08H13.3v-.34h.14c.57,0,1-.22,1-.8s-.42-.8-1-.8c-1.31,0-1.33,2-2.82,2-.78,0-1.35-.34-1.35-1.17s.57-1.16,1.35-1.16h.28v.34h-.31c-.57,0-1,.22-1,.82s.42.81,1,.81c1.3,0,1.33-2,2.83-2,.81,0,1.34.36,1.35,1.15S14.19,100.08,13.41,100.08Z"/><path class="cls-1" d="M4.13,2.33h-.4V2h.43c.58,0,1-.22,1-.82s-.44-.81-1-.81H1.34c-.58,0-1,.22-1,.81S.76,2,1.34,2H2.51V1.27h.33V2.33H1.37C.59,2.33,0,2,0,1.17S.59,0,1.37,0H4.13C4.91,0,5.5.34,5.5,1.17S4.91,2.33,4.13,2.33Z"/><path class="cls-1" d="M2.91,3.68V5.1H2.59V3.68Z"/><path class="cls-1" d="M4.16,8.81H4.09V8.47h.09c.58,0,1-.23,1-.82S4.74,6.8,4.11,6.8H2.86a1,1,0,0,1,.49,1c0,.75-.56,1.06-1.32,1.06H1.37C.58,8.83,0,8.47,0,7.64S.58,6.45,1.37,6.45H4.12c.81,0,1.38.35,1.38,1.19S4.94,8.81,4.16,8.81ZM2,6.8H1.35c-.59,0-1,.24-1,.84s.43.83,1,.83H2c.58,0,1-.23,1-.83S2.59,6.8,2,6.8Z"/><path class="cls-1" d="M1.24,12.31H.05V12H1.24V10.12h.34l3.88,1.79v.4H1.57v.45H1.24Zm.33-1.87V12H4.8Z"/><path class="cls-1" d="M.73,14.41H.05v-.35H.73Z"/><path class="cls-1" d="M4.13,18.13c-1.57,0-2.11-1.95-3.7-2H.37v1.93H.05V15.8H.31c1.91,0,2.32,2,3.8,2,.63,0,1.07-.2,1.07-.82s-.47-.81-1-.81H3.76V15.8h.35c.78,0,1.39.33,1.39,1.16S4.91,18.13,4.13,18.13Z"/><path class="cls-1" d="M4.13,21.79H4a1.1,1.1,0,0,1-1.12-.72,1,1,0,0,1-1.1.72H1.37C.58,21.79,0,21.45,0,20.63s.58-1.17,1.37-1.17h.31v.34H1.35c-.59,0-1,.23-1,.82s.44.82,1.05.82h.42a.79.79,0,0,0,.91-.81v-.36H3v.38a.82.82,0,0,0,.9.79h.2c.61,0,1-.23,1-.82s-.44-.82-1-.82H3.94v-.34h.19c.79,0,1.37.34,1.37,1.17S4.92,21.79,4.13,21.79Z"/><path class="cls-1" d="M2.91,23.15v1.42H2.59V23.15Z"/><path class="cls-1" d="M4.16,28.28H4.09v-.34h.09c.58,0,1-.23,1-.82s-.44-.85-1.07-.85H2.86a1,1,0,0,1,.49,1C3.35,28,2.79,28.3,2,28.3H1.37C.58,28.3,0,27.94,0,27.11s.58-1.19,1.37-1.19H4.12c.81,0,1.38.35,1.38,1.19S4.94,28.28,4.16,28.28ZM2,26.27H1.35c-.59,0-1,.24-1,.84s.43.83,1,.83H2c.58,0,1-.23,1-.83S2.59,26.27,2,26.27Z"/><path class="cls-1" d="M1.24,42,.05,41.7v-.32l5.41,1.18v.51L.05,44.28v-.36l1.19-.27Zm.31.05V43.6l3.5-.8Z"/><path class="cls-1" d="M5.45,46.71c0,.83-.52,1.15-1.31,1.15H3.55c-.85,0-1.28-.39-1.28-1.25v-.67H.05v-.35h5.4Zm-2.85-.1c0,.63.27.9.93.9h.63c.59,0,1-.2,1-.8v-.77H2.6Z"/><path class="cls-1" d="M5.45,50.3c0,.83-.52,1.16-1.31,1.16H3.55a1.11,1.11,0,0,1-1.28-1.25v-.68H.05v-.35h5.4ZM2.6,50.21c0,.62.27.89.93.89h.63c.59,0,1-.2,1-.8v-.77H2.6Z"/><path class="cls-1" d="M5.45,53.9c0,.82-.45,1.16-1.22,1.16H3.76a1,1,0,0,1-1.12-.78,1,1,0,0,1-1.1.78H.7a1.15,1.15,0,0,0-.65.13v-.37A1.18,1.18,0,0,1,.7,54.7h.84c.72,0,.92-.39.92-1v-.56H.05v-.36h5.4Zm-2.66-.2c0,.63.18,1,.9,1H4.2c.58,0,.93-.22.93-.81v-.76H2.79Z"/><path class="cls-1" d="M4.13,56.5c.79,0,1.37.36,1.37,1.18s-.58,1.19-1.37,1.19H1.37C.58,58.87,0,58.51,0,57.68S.58,56.5,1.37,56.5Zm-2.79.35c-.58,0-1,.23-1,.83s.44.84,1,.84H4.16c.58,0,1-.24,1-.84s-.44-.83-1-.83Z"/><path class="cls-1" d="M5.45,60.51l-5,1.09,5,1.1V63L.05,61.86v-.53l5.4-1.19Z"/><path class="cls-1" d="M3,66.17H2.63V64.69H.37v1.78H.05V64.34h5.4v2.13H5.13V64.69H3Z"/><path class="cls-1" d="M5.45,69c0,.83-.54,1.19-1.34,1.19H1.39C.59,70.2.05,69.84.05,69V67.82h5.4ZM.37,69c0,.6.41.85,1,.85H4.13c.59,0,1-.26,1-.85v-.83H.37Z"/></g></g></svg>