<svg xmlns="http://www.w3.org/2000/svg" viewBox="0 0 14.77 85.91"><defs><style>.cls-1{fill:#cbdada;}</style></defs><title>Ресурс 16</title><g id="Слой_2" data-name="Слой 2"><g id="Layer_3" data-name="Layer 3"><path class="cls-1" d="M13.4,2.33H13V2h.47c.58,0,1-.22,1-.82s-.44-.81-1-.81H10.61c-.58,0-1,.22-1,.81S10,2,10.61,2h.64v.34h-.62c-.78,0-1.36-.34-1.36-1.16S9.85,0,10.63,0H13.4c.78,0,1.37.34,1.37,1.17S14.18,2.33,13.4,2.33Z"/><path class="cls-1" d="M14.72,4.8c0,.83-.46,1.16-1.22,1.16H13c-.64,0-1-.24-1.12-.78A1,1,0,0,1,10.8,6H10a1.29,1.29,0,0,0-.65.13V5.72A1.31,1.31,0,0,1,10,5.61h.85c.72,0,.92-.4.92-1V4H9.31V3.68h5.41Zm-2.67-.2c0,.64.18,1,.91,1h.51c.58,0,.93-.23.93-.81V4H12.05Z"/><path class="cls-1" d="M12.22,9.25h-.33V7.78H9.64V9.55H9.31V7.43h5.41V9.55H14.4V7.78H12.22Z"/><path class="cls-1" d="M10.51,11.42l-1.2-.27v-.32L14.73,12v.51L9.31,13.73v-.36l1.2-.27Zm.31.05v1.58l3.5-.8Z"/><path class="cls-1" d="M9.31,16H14.4v-1.1h.32v2.55H14.4v-1.1H9.31Z"/><path class="cls-1" d="M14.72,19H9.31v-.36h5.41Z"/><path class="cls-1" d="M9.31,20.72V20.4h5.41v.46l-4.57,1.62h4.57v.32H9.31v-.39l4.82-1.69Z"/><path class="cls-1" d="M13.4,26.49H13v-.34h.42c.58,0,1-.23,1-.82s-.44-.82-1-.82H10.61c-.58,0-1,.23-1,.82s.43.82,1,.82h1.17v-.72h.32v1.06H10.63c-.78,0-1.36-.34-1.36-1.17s.58-1.16,1.36-1.16H13.4c.78,0,1.37.34,1.37,1.16S14.18,26.49,13.4,26.49Z"/><path class="cls-1" d="M14.72,30.94c0,.83-.46,1.16-1.22,1.16H13c-.64,0-1-.25-1.12-.78a1,1,0,0,1-1.11.78H10a1.29,1.29,0,0,0-.65.13v-.37a1.31,1.31,0,0,1,.65-.11h.85c.72,0,.92-.4.92-1v-.57H9.31v-.35h5.41Zm-2.67-.2c0,.64.18,1,.91,1h.51c.58,0,.93-.23.93-.81v-.77H12.05Z"/><path class="cls-1" d="M12.22,35.39h-.33V33.92H9.64v1.77H9.31V33.56h5.41v2.13H14.4V33.92H12.22Z"/><path class="cls-1" d="M13.41,39.32H13.3V39h.14c.57,0,1-.22,1-.8s-.42-.81-1-.81c-1.31,0-1.33,2-2.82,2-.78,0-1.35-.34-1.35-1.17S9.84,37,10.62,37h.28v.34h-.31c-.57,0-1,.22-1,.81s.42.82,1,.82c1.3,0,1.33-1.95,2.83-1.95.81,0,1.34.35,1.35,1.15S14.19,39.32,13.41,39.32Z"/><path class="cls-1" d="M9.31,41.6H14.4V40.5h.32v2.55H14.4V42H9.31Z"/><path class="cls-1" d="M13.4,44.26c.79,0,1.37.36,1.37,1.18s-.58,1.2-1.37,1.2H10.63c-.79,0-1.36-.37-1.36-1.2s.57-1.18,1.36-1.18Zm-2.79.36c-.59,0-1,.23-1,.82s.43.84,1,.84h2.81c.59,0,1-.24,1-.84s-.43-.82-1-.82Z"/><path class="cls-1" d="M14.72,49.12c0,.82-.46,1.16-1.22,1.16H13c-.64,0-1-.25-1.12-.78a1,1,0,0,1-1.11.78H10a1.19,1.19,0,0,0-.65.13V50a1.2,1.2,0,0,1,.65-.12h.85c.72,0,.92-.39.92-1v-.56H9.31V48h5.41Zm-2.67-.2c0,.63.18,1,.91,1h.51c.58,0,.93-.22.93-.81v-.76H12.05Z"/><path class="cls-1" d="M10.51,52.26,9.31,52v-.33l5.42,1.18v.52l-5.42,1.2v-.35l1.2-.27Zm.31.05v1.57l3.5-.79Z"/><path class="cls-1" d="M9.31,56.81H14.4V55.7h.32v2.56H14.4v-1.1H9.31Z"/><path class="cls-1" d="M14.72,59.84H9.31v-.35h5.41Z"/><path class="cls-1" d="M13.4,61.21c.79,0,1.37.36,1.37,1.18s-.58,1.19-1.37,1.19H10.63c-.79,0-1.36-.36-1.36-1.19s.57-1.18,1.36-1.18Zm-2.79.35c-.59,0-1,.23-1,.83s.43.84,1,.84h2.81c.59,0,1-.24,1-.84s-.43-.83-1-.83Z"/><path class="cls-1" d="M9.31,65.26v-.32h5.41v.46L10.15,67h4.57v.33H9.31V67l4.82-1.69Z"/><path class="cls-1" d="M14.72,71.81c0,.83-.53,1.16-1.31,1.16h-.59c-.86,0-1.28-.4-1.28-1.25v-.67H9.31v-.36h5.41Zm-2.86-.09c0,.62.28.89.94.89h.63c.59,0,1-.2,1-.8v-.76H11.86Z"/><path class="cls-1" d="M13.4,74.26c.79,0,1.37.37,1.37,1.18s-.58,1.2-1.37,1.2H10.63c-.79,0-1.36-.36-1.36-1.2s.57-1.18,1.36-1.18Zm-2.79.36c-.59,0-1,.23-1,.82s.43.84,1,.84h2.81c.59,0,1-.24,1-.84s-.43-.82-1-.82Z"/><path class="cls-1" d="M14.72,78.35H9.31V78h5.41Z"/><path class="cls-1" d="M9.31,80.06v-.32h5.41v.46l-4.57,1.62h4.57v.32H9.31v-.39l4.82-1.69Z"/><path class="cls-1" d="M9.31,84.46H14.4V83.35h.32v2.56H14.4v-1.1H9.31Z"/><path class="cls-1" d="M5.45,1.15C5.45,2,5,2.31,4.23,2.31H3.76a1,1,0,0,1-1.12-.78,1,1,0,0,1-1.1.78H.7a1.15,1.15,0,0,0-.65.13V2.07A1.18,1.18,0,0,1,.7,2h.84c.72,0,.92-.39.92-1V.38H.05V0h5.4ZM2.79,1c0,.63.18,1,.9,1H4.2c.58,0,.93-.22.93-.81V.38H2.79Z"/><path class="cls-1" d="M2.91,3.76V5.17H2.59V3.76Z"/><path class="cls-1" d="M1.24,8.67H.05V8.32H1.24V6.48h.34L5.46,8.27v.4H1.57v.45H1.24ZM1.57,6.8V8.32H4.8Z"/><path class="cls-1" d="M4.13,12.74H4A1.12,1.12,0,0,1,2.88,12a1,1,0,0,1-1.1.72H1.37C.58,12.74,0,12.4,0,11.57s.58-1.16,1.37-1.16h.31v.34H1.35c-.59,0-1,.22-1,.82s.44.81,1.05.81h.42c.57,0,.89-.27.91-.8v-.36H3v.38a.82.82,0,0,0,.9.78h.2c.61,0,1-.22,1-.81s-.44-.82-1-.82H3.94v-.34h.19c.79,0,1.37.34,1.37,1.16S4.92,12.74,4.13,12.74Z"/><path class="cls-1" d="M.73,14.46H.05v-.35H.73Z"/><path class="cls-1" d="M5.13,17.8v-2h.33v2.35H5.14L.05,16.65v-.36Z"/><path class="cls-1" d="M4.16,21.87H4.09v-.34h.09c.58,0,1-.22,1-.82s-.44-.85-1.07-.85H2.86a1,1,0,0,1,.49,1c0,.75-.56,1.06-1.32,1.06H1.37C.58,21.89,0,21.53,0,20.7s.58-1.19,1.37-1.19H4.12c.81,0,1.38.35,1.38,1.19S4.94,21.87,4.16,21.87ZM2,19.86H1.35c-.59,0-1,.24-1,.84s.43.84,1,.84H2c.58,0,1-.24,1-.84S2.59,19.86,2,19.86Z"/><path class="cls-1" d="M2.91,23.23v1.42H2.59V23.23Z"/><path class="cls-1" d="M1.24,28.14H.05V27.8H1.24V26h.34l3.88,1.79v.4H1.57v.46H1.24Zm.33-1.86V27.8H4.8Z"/><path class="cls-1" d="M5.45,42.06H.05V41.7h5.4Z"/><path class="cls-1" d="M.05,43.77v-.33h5.4v.47L.89,45.53H5.45v.32H.05v-.39l4.82-1.69Z"/><path class="cls-1" d="M5.45,50.32c0,.83-.52,1.15-1.31,1.15H3.55c-.85,0-1.28-.39-1.28-1.25v-.67H.05V49.2h5.4Zm-2.85-.1c0,.63.27.9.93.9h.63c.59,0,1-.2,1-.8v-.77H2.6Z"/><path class="cls-1" d="M5.45,53.92c0,.82-.45,1.15-1.22,1.15H3.76a1,1,0,0,1-1.12-.78,1,1,0,0,1-1.1.78H.7a1.24,1.24,0,0,0-.65.13v-.37a1.29,1.29,0,0,1,.65-.11h.84c.72,0,.92-.4.92-1v-.57H.05v-.35h5.4Zm-2.66-.2c0,.63.18,1,.9,1H4.2c.58,0,.93-.23.93-.81v-.77H2.79Z"/><path class="cls-1" d="M4.13,56.51c.79,0,1.37.37,1.37,1.18s-.58,1.2-1.37,1.2H1.37c-.79,0-1.37-.36-1.37-1.2s.58-1.18,1.37-1.18Zm-2.79.36c-.58,0-1,.23-1,.82s.44.84,1,.84H4.16c.58,0,1-.23,1-.84s-.44-.82-1-.82Z"/><path class="cls-1" d="M4.13,62.55h-.4v-.34h.43c.58,0,1-.22,1-.81s-.44-.82-1-.82H1.34c-.58,0-1,.22-1,.82s.43.81,1,.81H2.51v-.72h.33v1.06H1.37C.59,62.55,0,62.21,0,61.39s.59-1.17,1.37-1.17H4.13c.78,0,1.37.34,1.37,1.17S4.91,62.55,4.13,62.55Z"/><path class="cls-1" d="M5.45,65c0,.83-.45,1.16-1.22,1.16H3.76a1,1,0,0,1-1.12-.78,1,1,0,0,1-1.1.78H.7a1.15,1.15,0,0,0-.65.13V66a1.28,1.28,0,0,1,.65-.12h.84c.72,0,.92-.39.92-1v-.56H.05v-.35h5.4Zm-2.66-.2c0,.63.18,1,.9,1H4.2c.58,0,.93-.22.93-.81v-.76H2.79Z"/><path class="cls-1" d="M3,69.49H2.63V68H.37v1.77H.05V67.66h5.4v2.13H5.13V68H3Z"/><path class="cls-1" d="M4.15,73.42H4v-.34h.14c.57,0,1-.22,1-.81s-.43-.8-1-.8c-1.31,0-1.34,2-2.83,2C.57,73.42,0,73.08,0,72.26s.57-1.17,1.35-1.17h.28v.34h-.3c-.58,0-1,.23-1,.82s.42.82,1,.82c1.3,0,1.32-1.95,2.83-1.95.81,0,1.33.35,1.34,1.15S4.93,73.42,4.15,73.42Z"/><path class="cls-1" d="M4.15,77H4V76.7h.14c.57,0,1-.22,1-.8s-.43-.8-1-.8c-1.31,0-1.34,2-2.83,2C.57,77.05,0,76.71,0,75.88s.57-1.16,1.35-1.16h.28v.34h-.3c-.58,0-1,.22-1,.82s.42.81,1,.81c1.3,0,1.32-2,2.83-2,.81,0,1.33.36,1.34,1.15S4.93,77,4.15,77Z"/></g></g></svg>