<svg xmlns="http://www.w3.org/2000/svg" viewBox="0 0 14.77 87.53"><defs><style>.cls-1{fill:#cbdada;}</style></defs><title>Ресурс 15</title><g id="Слой_2" data-name="Слой 2"><g id="Layer_3" data-name="Layer 3"><path class="cls-1" d="M14.72,1.23c0,.84-.55,1.2-1.35,1.2H10.66c-.8,0-1.35-.36-1.35-1.2V.05h5.41Zm-5.08,0c0,.6.41.84,1,.84h2.75c.6,0,1-.25,1-.84V.4H9.64Z"/><path class="cls-1" d="M14.72,4.14H9.31V3.79h5.41Z"/><path class="cls-1" d="M13.41,7.8H13.3V7.46h.14c.57,0,1-.21,1-.8s-.42-.8-1-.8c-1.31,0-1.33,1.95-2.82,1.95-.78,0-1.35-.34-1.35-1.16s.57-1.17,1.35-1.17h.28v.34h-.31c-.57,0-1,.23-1,.82s.42.82,1,.82c1.3,0,1.33-2,2.83-2,.81,0,1.34.36,1.35,1.15S14.19,7.8,13.41,7.8Z"/><path class="cls-1" d="M13.4,11.46H13v-.34h.47c.58,0,1-.22,1-.82s-.44-.82-1-.82H10.61c-.58,0-1,.23-1,.82s.43.82,1,.82h.64v.34h-.62c-.78,0-1.36-.34-1.36-1.17s.58-1.16,1.36-1.16H13.4c.78,0,1.37.34,1.37,1.16S14.18,11.46,13.4,11.46Z"/><path class="cls-1" d="M11.85,13.16H9.31v-.35h5.41v.35H12.18v1.68h2.54v.37H9.31v-.37h2.54Z"/><path class="cls-1" d="M10.51,17.11l-1.2-.27v-.32l5.42,1.18v.51L9.31,19.42v-.36l1.2-.27Zm.31.05v1.58l3.5-.8Z"/><path class="cls-1" d="M14.72,21.85c0,.83-.46,1.16-1.22,1.16H13c-.64,0-1-.25-1.12-.78A1,1,0,0,1,10.8,23H10a1.29,1.29,0,0,0-.65.13v-.37a1.31,1.31,0,0,1,.65-.11h.85c.72,0,.92-.4.92-1v-.56H9.31v-.35h5.41Zm-2.67-.2c0,.63.18,1,.91,1h.51c.58,0,.93-.23.93-.81v-.77H12.05Z"/><path class="cls-1" d="M13.4,26.78H13v-.34h.42c.58,0,1-.22,1-.82s-.44-.81-1-.81H10.61c-.58,0-1,.22-1,.81s.43.82,1,.82h1.17v-.72h.32v1.06H10.63c-.78,0-1.36-.34-1.36-1.16s.58-1.17,1.36-1.17H13.4c.78,0,1.37.34,1.37,1.17S14.18,26.78,13.4,26.78Z"/><path class="cls-1" d="M12.22,30h-.33V28.5H9.64v1.77H9.31V28.14h5.41v2.13H14.4V28.5H12.22Z"/><path class="cls-1" d="M14.72,34.71c0,.83-.53,1.15-1.31,1.15h-.59c-.86,0-1.28-.39-1.28-1.25v-.67H9.31v-.35h5.41Zm-2.86-.1c0,.63.28.9.94.9h.63c.59,0,1-.2,1-.8v-.77H11.86Z"/><path class="cls-1" d="M10.51,37.6l-1.2-.27V37l5.42,1.18v.52L9.31,39.9v-.35l1.2-.27Zm.31,0v1.58l3.5-.8Z"/><path class="cls-1" d="M14.72,42.34c0,.83-.46,1.16-1.22,1.16H13c-.64,0-1-.25-1.12-.78a1,1,0,0,1-1.11.78H10a1.19,1.19,0,0,0-.65.13v-.37a1.3,1.3,0,0,1,.65-.12h.85c.72,0,.92-.39.92-1v-.56H9.31v-.36h5.41Zm-2.67-.2c0,.63.18,1,.91,1h.51c.58,0,.93-.22.93-.81v-.76H12.05Z"/><path class="cls-1" d="M9.31,45.9H14.4V44.79h.32v2.56H14.4v-1.1H9.31Z"/><path class="cls-1" d="M14.72,48.93H9.31v-.35h5.41Z"/><path class="cls-1" d="M13.4,52.63H13v-.34h.47c.58,0,1-.23,1-.82s-.44-.82-1-.82H10.61c-.58,0-1,.23-1,.82s.43.82,1,.82h.64v.34h-.62c-.78,0-1.36-.34-1.36-1.17s.58-1.16,1.36-1.16H13.4c.78,0,1.37.34,1.37,1.16S14.18,52.63,13.4,52.63Z"/><path class="cls-1" d="M9.31,54h5.41v.35H9.64V56H9.31Z"/><path class="cls-1" d="M12.22,59.16h-.33V57.68H9.64v1.78H9.31V57.33h5.41v2.13H14.4V57.68H12.22Z"/><path class="cls-1" d="M14.72,63.9c0,.83-.46,1.16-1.22,1.16H13c-.64,0-1-.25-1.12-.78a1,1,0,0,1-1.11.78H10a1.19,1.19,0,0,0-.65.13v-.37A1.3,1.3,0,0,1,10,64.7h.85c.72,0,.92-.39.92-1v-.56H9.31v-.36h5.41Zm-2.67-.2c0,.63.18,1,.91,1h.51c.58,0,.93-.22.93-.81v-.76H12.05Z"/><path class="cls-1" d="M12.22,68.35h-.33V66.88H9.64v1.77H9.31V66.52h5.41v2.13H14.4V66.88H12.22Z"/><path class="cls-1" d="M10.51,70.52l-1.2-.27v-.33l5.42,1.18v.52l-5.42,1.2v-.35l1.2-.27Zm.31,0v1.57l3.5-.79Z"/><path class="cls-1" d="M13.4,76.44H13V76.1h.47c.58,0,1-.22,1-.82s-.44-.82-1-.82H10.61c-.58,0-1,.23-1,.82s.43.82,1,.82h.64v.34h-.62c-.78,0-1.36-.34-1.36-1.17s.58-1.16,1.36-1.16H13.4c.78,0,1.37.34,1.37,1.16S14.18,76.44,13.4,76.44Z"/><path class="cls-1" d="M9.31,78.72H14.4v-1.1h.32v2.55H14.4V79.08H9.31Z"/><path class="cls-1" d="M13.4,81.38c.79,0,1.37.36,1.37,1.18s-.58,1.2-1.37,1.2H10.63c-.79,0-1.36-.37-1.36-1.2s.57-1.18,1.36-1.18Zm-2.79.36c-.59,0-1,.23-1,.82s.43.84,1,.84h2.81c.59,0,1-.24,1-.84s-.43-.82-1-.82Z"/><path class="cls-1" d="M14.72,86.24c0,.82-.46,1.16-1.22,1.16H13c-.64,0-1-.25-1.12-.78a1,1,0,0,1-1.11.78H10a1.19,1.19,0,0,0-.65.13v-.37A1.2,1.2,0,0,1,10,87h.85c.72,0,.92-.39.92-1v-.56H9.31v-.36h5.41ZM12.05,86c0,.63.18,1,.91,1h.51c.58,0,.93-.22.93-.81v-.76H12.05Z"/><path class="cls-1" d="M.05,2.43V0H.37L5.13,2.09V.1h.32V2.46H5.12L.37.37V2.43Z"/><path class="cls-1" d="M2.91,3.68V5.1H2.59V3.68Z"/><path class="cls-1" d="M4.13,8.78H4a1.11,1.11,0,0,1-1.12-.71,1,1,0,0,1-1.1.71H1.37C.58,8.78,0,8.44,0,7.62S.58,6.45,1.37,6.45h.31v.34H1.35c-.59,0-1,.23-1,.82s.44.82,1.05.82h.42c.57,0,.89-.28.91-.8V7.26H3v.38a.82.82,0,0,0,.9.79h.2c.61,0,1-.23,1-.82s-.44-.82-1-.82H3.94V6.45h.19c.79,0,1.37.34,1.37,1.17S4.92,8.78,4.13,8.78Z"/><path class="cls-1" d="M1.24,12.28H.05v-.35H1.24V10.09h.34l3.88,1.78v.41H1.57v.45H1.24Zm.33-1.87v1.52H4.8Z"/><path class="cls-1" d="M.73,14.38H.05V14H.73Z"/><path class="cls-1" d="M1.24,17.89H.05v-.35H1.24V15.7h.34l3.88,1.79v.4H1.57v.45H1.24ZM1.57,16v1.52H4.8Z"/><path class="cls-1" d="M3.2,20.05a.94.94,0,0,1,.42.87c0,.75-.58,1-1.33,1H1.37C.59,22,0,21.62,0,20.8s.59-1.17,1.37-1.17h.29V20H1.35c-.58,0-1,.23-1,.82s.44.82,1,.82h.91c.58,0,1-.23,1-.82A.75.75,0,0,0,2.67,20h-.1v-.33l2.89.13v2H5.13v-1.7Z"/><path class="cls-1" d="M2.91,23.32v1.42H2.59V23.32Z"/><path class="cls-1" d="M3.2,26.51a.94.94,0,0,1,.42.87c0,.75-.58,1.05-1.33,1.05H1.37C.59,28.43,0,28.08,0,27.26s.59-1.17,1.37-1.17h.29v.34H1.35c-.58,0-1,.23-1,.82s.44.83,1,.83h.91c.58,0,1-.24,1-.83a.75.75,0,0,0-.61-.77h-.1v-.33l2.89.14v2H5.13v-1.7Z"/><path class="cls-1" d="M5.45,42.78c0,.83-.54,1.2-1.34,1.2H1.39c-.8,0-1.34-.37-1.34-1.2V41.59h5.4Zm-5.08,0c0,.6.41.85,1,.85H4.13c.59,0,1-.25,1-.85V42H.37Z"/><path class="cls-1" d="M4.13,45.31c.79,0,1.37.36,1.37,1.18s-.58,1.2-1.37,1.2H1.37c-.79,0-1.37-.37-1.37-1.2s.58-1.18,1.37-1.18Zm-2.79.35c-.58,0-1,.24-1,.83s.44.84,1,.84H4.16c.58,0,1-.24,1-.84s-.44-.83-1-.83Z"/><path class="cls-1" d="M.05,49.37V49h5.4v.46L.89,51.12H5.45v.33H.05v-.4l4.82-1.68Z"/><path class="cls-1" d="M3,54.65H2.63V53.18H.37V55H.05V52.83h5.4V55H5.13V53.18H3Z"/></g></g></svg>