<svg xmlns="http://www.w3.org/2000/svg" viewBox="0 0 26.53 16.5"><defs><style>.cls-1{fill:#525f66;}</style></defs><title>Ресурс 2</title><g id="Слой_2" data-name="Слой 2"><g id="Layer_1" data-name="Layer 1"><path id="Behance" class="cls-1" d="M24,2.34H17.31V.68H24V2.34ZM12.88,9.11a4.34,4.34,0,0,1,.65,2.41,4.86,4.86,0,0,1-.74,2.64,4.63,4.63,0,0,1-1.16,1.29,4.49,4.49,0,0,1-1.87.83,11.32,11.32,0,0,1-2.33.22H0V0H8c2,0,3.43.61,4.28,1.76A4.22,4.22,0,0,1,13,4.28a3.68,3.68,0,0,1-.76,2.43A4.09,4.09,0,0,1,11,7.65,3.58,3.58,0,0,1,12.88,9.11ZM3.81,6.51H7.3A3.29,3.29,0,0,0,9,6.1a1.55,1.55,0,0,0,.67-1.45,1.49,1.49,0,0,0-.88-1.53,6.29,6.29,0,0,0-1.95-.25H3.81Zm6.24,4.78A1.77,1.77,0,0,0,9,9.52a4.19,4.19,0,0,0-1.65-.28H3.81v4.4H7.29A4,4,0,0,0,9,13.35,2.09,2.09,0,0,0,10.05,11.29ZM26.42,8.6a15,15,0,0,1,.1,2.35H17.91a2.81,2.81,0,0,0,1.24,2.49,3.1,3.1,0,0,0,1.7.45,2.62,2.62,0,0,0,1.72-.54,2.58,2.58,0,0,0,.63-.82h3.16a3.76,3.76,0,0,1-1.15,2.14,5.73,5.73,0,0,1-4.44,1.73,6.46,6.46,0,0,1-4.17-1.46q-1.8-1.45-1.8-4.73a6.41,6.41,0,0,1,1.63-4.72,5.71,5.71,0,0,1,4.23-1.64,6.77,6.77,0,0,1,2.78.56,4.83,4.83,0,0,1,2,1.75A5.9,5.9,0,0,1,26.42,8.6Zm-3.11.31A2.58,2.58,0,0,0,22.49,7a2.72,2.72,0,0,0-1.83-.64,2.46,2.46,0,0,0-1.85.68A3.17,3.17,0,0,0,18,8.91Z"/></g></g></svg>