<svg xmlns="http://www.w3.org/2000/svg" viewBox="0 0 107.99 107.17"><defs><style>.cls-1{fill:#cbdada;}</style></defs><title>bg-logo-3</title><g id="Слой_2" data-name="Слой 2"><g id="Layer_1" data-name="Layer 1"><path class="cls-1" d="M0,97.68A173.44,173.44,0,0,0,4.68,72l5.63,2C9.49,81.75,8,93.23,6,100.26ZM46.85,57.62s-.12,2.7-.23,4C45.33,89.13,44.16,99.44,41.23,103a7.88,7.88,0,0,1-6.44,3.51,57.93,57.93,0,0,1-10.31.12,23,23,0,0,0-2.34-8.67,71.89,71.89,0,0,0,8.78.47A3.29,3.29,0,0,0,34.08,97C35,95.69,36,92.18,36.66,84.8L33,86.32c-.82-4.1-3.28-10.42-5.51-15.23l4.34-1.64A79.67,79.67,0,0,1,37,81.87c.35-4.22.7-9.25.94-15.58H5.39v-62H45.21V13H31.62v9H43v8.55H31.62v9.25H43v8.55H31.62v9.25ZM17.57,73.32a127.36,127.36,0,0,1,1.64,21.32l-5.16.7A114.41,114.41,0,0,0,12.77,73.9ZM13.7,13v9h9.72V13Zm9.72,17.57H13.7v9.25h9.72ZM13.7,57.62h9.72V48.37H13.7ZM24,91.71a102.58,102.58,0,0,0-3.75-18.86L25,72a84.59,84.59,0,0,1,4,18.62Zm84-36.43h-6.91V95.92c0,5.16-1.06,7.85-4.81,9.37s-9.25,1.88-17.1,1.88a32.15,32.15,0,0,0-3.86-9.72c5.86.23,11.59.23,13.23.23s2.23-.59,2.23-2V55.28H47.43V45.91H108ZM98.62,44.74A243.08,243.08,0,0,0,77.18,30.45C72.85,37.25,65.71,41.93,54,45.33a25.22,25.22,0,0,0-5.38-7.85C62.19,34,68.52,28.34,71.44,19.68H51v-9H73.44c.35-3.16.7-6.79.82-10.66h9.95c-.23,3.75-.47,7.38-.82,10.66h22.14v9H81.75c-.23.93-.58,2-.82,2.93C89,27.06,99.67,33.38,105.41,37.48ZM63.25,88.66V96H54.81V61.61H82.92V88.66Zm0-19.09V80.7H74.49V69.57Z"/></g></g></svg>