<svg xmlns="http://www.w3.org/2000/svg" viewBox="0 0 105.18 107.28"><defs><style>.cls-1{fill:#cbdada;}</style></defs><title>bg-logo-4</title><g id="Слой_2" data-name="Слой 2"><g id="Layer_1" data-name="Layer 1"><path class="cls-1" d="M105.18,65.59V75.78H0V65.59H19.91V7c23.43-1.17,50.71-3.52,67.7-7l5.74,10C76.13,13.23,52.47,15.34,31,16.28V31H98.85V41.23H78.94V65.59ZM43.69,84.8c-9.49,8.08-23.78,17-35.49,22.48a71.78,71.78,0,0,0-7.73-8.2c11.71-4.91,26-13.93,33.26-21ZM31,65.59H67.81V41.23H31ZM69.92,78.35C80.7,84,96.16,92.64,104,98.5l-8.66,8.31C88.08,101,73.08,91.59,61.84,85.5Z"/></g></g></svg>