<svg xmlns="http://www.w3.org/2000/svg" xmlns:xlink="http://www.w3.org/1999/xlink" viewBox="0 0 350.69 744.19"><defs><style>.cls-1{fill:#1b1f21;}.cls-2{fill:#1b1f21;}</style><linearGradient id="linear-gradient" y1="174.01" x2="350.69" y2="174.01" gradientUnits="userSpaceOnUse"><stop offset="0" stop-color="#cbdada"/><stop offset="1" stop-color="#cbdada"/></linearGradient><linearGradient id="linear-gradient-2" x1="4.95" y1="569.99" x2="346.5" y2="569.99" xlink:href="#linear-gradient"/></defs><title>Ресурс 3</title><g id="Слой_2" data-name="Слой 2"><g id="Layer_1" data-name="Layer 1"><path class="cls-1" d="M0,317.22c6.47-22.06,12.55-58.58,15.21-83.3l18.26,6.47c-2.66,25.1-7.6,62.37-14.07,85.2ZM152.14,187.14s-.38,8.75-.76,12.93c-4.18,89.38-8,122.85-17.5,134.26C128.56,341.94,122.1,345,113,345.74c-7.23,1.14-20.16,1.14-33.47.38-.39-8.36-3.43-20.53-7.61-28.14a234.62,234.62,0,0,0,28.52,1.52c4.57,0,7.61-.76,10.27-4.57,3-4.18,6.09-15.59,8.37-39.55l-11.79,4.94C104.6,267,96.61,246.47,89.38,230.88l14.08-5.33c6.84,12.55,12.55,27.77,16.73,40.32,1.14-13.69,2.28-30.05,3-50.59H17.5V14.07H146.82V42.22H102.7V71.51h36.89V99.27H102.7v30.05h36.89v27.77H102.7v30Zm-95.09,51a413.48,413.48,0,0,1,5.33,69.23l-16.74,2.28c1.14-19-.76-47.16-4.18-69.61ZM44.5,42.22V71.51H76.07V42.22ZM76.07,99.27H44.5v30.05H76.07ZM44.5,187.14H76.07v-30H44.5ZM78,297.82C76.83,281.46,71.51,256,65.8,236.58L81,233.92C87.48,252.94,92.81,278,94,294.4ZM350.69,179.53H328.25v132c0,16.74-3.43,25.49-15.6,30.43-11.79,5.33-30,6.09-55.53,6.09-1.52-9.13-7.23-22.83-12.55-31.58,19,.77,37.65.77,43,.77,5.7-.38,7.23-1.91,7.23-6.47V179.53H154V149.1H350.69ZM320.26,145.3c-15.59-12.17-44.12-31.19-69.61-46.41-14.07,22.07-37.27,37.28-75.31,48.31-3-8-11-19.4-17.49-25.49C202,110.3,222.51,92.05,232,63.9H165.45V34.62h73c1.14-10.28,2.29-22.07,2.67-34.62h32.33c-.77,12.17-1.53,24-2.67,34.62H342.7V63.9H265.49c-.76,3-1.9,6.47-2.67,9.51,26.25,14.45,60.86,35,79.5,48.3ZM205.39,287.93v24H178V200.07h91.28v87.86Zm0-62v36.14h36.52V225.93Z"/><path class="cls-2" d="M346.5,608.78v33.09H5V608.78H69.61V418.61c76.07-3.81,164.69-11.42,219.84-22.83l18.64,32.33c-55.91,10.65-132.75,17.5-202.35,20.54v47.93H326v33.09H261.3v79.11ZM146.82,671.16c-30.81,26.25-77.21,55.15-115.25,73-5.7-7.23-16.73-19.4-25.1-26.63,38-16,84.44-45.26,108-68.08Zm-41.08-62.38H225.17V529.67H105.74ZM232,650.24c35,18.26,85.2,46.4,110.68,65.42l-28.15,27c-23.58-19-72.26-49.45-108.78-69.23Z"/></g></g></svg>