<svg xmlns="http://www.w3.org/2000/svg" viewBox="0 0 21.79 21.79"><defs><style>.cls-1{fill:#525f66;}</style></defs><title>Ресурс 6</title><g id="Слой_2" data-name="Слой 2"><g id="Layer_1" data-name="Layer 1"><path class="cls-1" d="M10.89,2C13.8,2,14.15,2,15.3,2a5.8,5.8,0,0,1,2,.37,3.4,3.4,0,0,1,1.25.82,3.4,3.4,0,0,1,.82,1.25,6.05,6.05,0,0,1,.37,2c0,1.15.07,1.5.07,4.4s0,3.26-.07,4.41a6.05,6.05,0,0,1-.37,2,3.68,3.68,0,0,1-2.07,2.07,6.05,6.05,0,0,1-2,.37c-1.15,0-1.5.07-4.41.07s-3.25,0-4.4-.07a6.05,6.05,0,0,1-2-.37,3.4,3.4,0,0,1-1.25-.82,3.4,3.4,0,0,1-.82-1.25,5.8,5.8,0,0,1-.37-2C2,14.15,2,13.8,2,10.89S2,7.64,2,6.49a5.8,5.8,0,0,1,.37-2,3.4,3.4,0,0,1,.82-1.25A3.4,3.4,0,0,1,4.47,2.4a5.8,5.8,0,0,1,2-.37C7.64,2,8,2,10.89,2m0-2C7.94,0,7.56,0,6.4.07a7.88,7.88,0,0,0-2.64.5A5.24,5.24,0,0,0,1.83,1.83,5.24,5.24,0,0,0,.57,3.76,7.88,7.88,0,0,0,.07,6.4C0,7.56,0,7.94,0,10.89s0,3.33.07,4.5A7.88,7.88,0,0,0,.57,18,5.32,5.32,0,0,0,1.83,20a5.24,5.24,0,0,0,1.93,1.26,7.88,7.88,0,0,0,2.64.5c1.16.06,1.54.07,4.49.07s3.33,0,4.5-.07a7.88,7.88,0,0,0,2.64-.5A5.61,5.61,0,0,0,21.22,18a7.88,7.88,0,0,0,.5-2.64c.06-1.17.07-1.54.07-4.5s0-3.33-.07-4.49a7.88,7.88,0,0,0-.5-2.64A5.24,5.24,0,0,0,20,1.83,5.32,5.32,0,0,0,18,.57a7.88,7.88,0,0,0-2.64-.5C14.22,0,13.85,0,10.89,0Z"/><path class="cls-1" d="M10.89,5.3a5.6,5.6,0,1,0,5.6,5.59A5.59,5.59,0,0,0,10.89,5.3Zm0,9.23a3.64,3.64,0,1,1,3.64-3.64A3.64,3.64,0,0,1,10.89,14.53Z"/><circle class="cls-1" cx="16.71" cy="5.08" r="1.31"/></g></g></svg>