<svg xmlns="http://www.w3.org/2000/svg" viewBox="0 0 22.56 21.56"><defs><style>.cls-1{fill:#525f66;}</style></defs><title>Ресурс 5</title><g id="Слой_2" data-name="Слой 2"><g id="Layer_1" data-name="Layer 1"><path class="cls-1" d="M12.6,9.12l0,0v0ZM5.12,7H.29V21.56H5.12Zm.32-4.5A2.51,2.51,0,0,0,2.74,0a2.52,2.52,0,1,0-.07,5h0A2.53,2.53,0,0,0,5.44,2.51ZM22.56,13.22c0-4.47-2.39-6.55-5.57-6.55a4.82,4.82,0,0,0-4.36,2.4V7H7.8c.06,1.37,0,14.55,0,14.55h4.83V13.44a3.24,3.24,0,0,1,.16-1.18,2.65,2.65,0,0,1,2.48-1.77c1.75,0,2.45,1.33,2.45,3.29v7.78h4.84Z"/></g></g></svg>