<svg xmlns="http://www.w3.org/2000/svg" viewBox="0 0 22.26 22.26"><defs><style>.cls-1{fill:#525f66;}</style></defs><title>Ресурс 7</title><g id="Слой_2" data-name="Слой 2"><g id="Layer_1" data-name="Layer 1"><path class="cls-1" d="M11.13,0A11.13,11.13,0,1,0,22.26,11.13,11.13,11.13,0,0,0,11.13,0ZM16.6,7.63l-1.83,8.6c-.13.61-.5.76-1,.48L11,14.65,9.64,16a.69.69,0,0,1-.56.27l.2-2.83,5.15-4.66c.23-.2,0-.31-.34-.11l-6.37,4L5,11.77c-.6-.19-.61-.59.12-.88L15.83,6.75C16.32,6.57,16.76,6.87,16.6,7.63Z"/></g></g></svg>