<svg xmlns="http://www.w3.org/2000/svg" viewBox="0 0 22.29 18.11"><defs><style>.cls-1{fill:#525f66;}</style></defs><title>Ресурс 3</title><g id="Слой_2" data-name="Слой 2"><g id="Layer_1" data-name="Layer 1"><path class="cls-1" d="M7,18.11a12.92,12.92,0,0,0,13-13c0-.2,0-.4,0-.59a9.51,9.51,0,0,0,2.28-2.37,9.26,9.26,0,0,1-2.63.72,4.55,4.55,0,0,0,2-2.53,9.22,9.22,0,0,1-2.9,1.11A4.57,4.57,0,0,0,11,5.61,13,13,0,0,1,1.55.83,4.59,4.59,0,0,0,3,6.94,4.6,4.6,0,0,1,.89,6.37v0a4.58,4.58,0,0,0,3.67,4.49A4.63,4.63,0,0,1,2.5,11a4.57,4.57,0,0,0,4.27,3.17,9.21,9.21,0,0,1-5.68,2A9.82,9.82,0,0,1,0,16.06a13,13,0,0,0,7,2.05"/></g></g></svg>