<svg xmlns="http://www.w3.org/2000/svg" viewBox="0 0 21.14 18.28"><defs><style>.cls-1{fill:#525f66;}</style></defs><title>Ресурс 1</title><g id="Слой_2" data-name="Слой 2"><g id="Layer_1" data-name="Layer 1"><path class="cls-1" d="M21.13,4.23Q21,7.32,16.82,12.68q-4.32,5.59-7.3,5.6-1.85,0-3.12-3.41L4.69,8.61c-.63-2.27-1.31-3.41-2-3.41A6.39,6.39,0,0,0,1,6.2L0,4.92,3.08,2.17C4.48,1,5.52.33,6.22.27q2.46-.24,3,3.37c.41,2.6.7,4.21.86,4.84.47,2.16,1,3.24,1.56,3.24s1.11-.7,2-2.1a8.27,8.27,0,0,0,1.42-3.19c.13-1.21-.35-1.81-1.42-1.81A4,4,0,0,0,12.1,5q1.56-5.1,6-5Q21.32.11,21.13,4.23Z"/></g></g></svg>